<?xml version="1.0" encoding="utf-8"?>
<!-- Generator: Adobe Illustrator 19.0.0, SVG Export Plug-In . SVG Version: 6.00 Build 0)  -->
<svg version="1.1" id="Layer_1" xmlns="http://www.w3.org/2000/svg" xmlns:xlink="http://www.w3.org/1999/xlink" x="0px" y="0px"
	 viewBox="0 0 230.8 190.7" style="enable-background:new 0 0 230.8 190.7;" xml:space="preserve">
<style type="text/css">
	.st0{fill:#616262;}
	.st1{fill:#434343;}
	.st2{fill:#FFFFFF;}
	.st3{fill:#212121;}
	.st4{fill:none;stroke:#616262;stroke-width:0.7;stroke-miterlimit:10;}
	.st5{fill:none;stroke:#616262;stroke-width:0.5;stroke-miterlimit:10;}
	.st6{fill:#757576;}
	.st7{fill:#BDBDBD;}
	.st8{stroke:#70B2E2;stroke-miterlimit:10;}
</style>
<path id="XMLID_321_" class="st0" d="M72.2,84.3c0.9,4.8-5.2,23-17.7,26s-27.2-9.1-27.7-15.1c-0.3-4.5,6.1-19.6,18.6-22.6
	S71.3,79.6,72.2,84.3z"/>
<path id="XMLID_320_" class="st1" d="M72.1,83.5c0.8,4.2-6.1,19.1-18.7,22.1c-12.5,3-26.4-5.9-26.7-11.3
	c-0.2-4.1,6.1-19.1,18.7-22.1S71.3,79.3,72.1,83.5z"/>
<path id="XMLID_319_" class="st2" d="M70.4,83.6c0.7,3.9-5.7,17.7-17.3,20.5c-11.6,2.8-24.4-5.5-24.7-10.5
	c-0.2-3.8,5.7-17.7,17.3-20.5C57.3,70.3,69.6,79.7,70.4,83.6z"/>
<circle id="XMLID_318_" class="st3" cx="60.9" cy="84.3" r="3.5"/>
<path id="XMLID_317_" class="st4" d="M73.8,90.9c1.1,2.4-2.9,14.6-13.3,20.5c-10.5,5.9-23.8,4-24.6,0.8"/>
<path id="XMLID_316_" class="st4" d="M72.3,89c0.8,1-1.1,9.5-6.5,15.1c-5.4,5.6-8.5,7.3-11.4,7.2"/>
<path id="XMLID_315_" class="st0" d="M157.5,84.3c-0.9,4.8,5.2,23,17.7,26s27.2-9.1,27.7-15.1c0.3-4.5-6.1-19.6-18.6-22.6
	C171.6,69.6,158.4,79.6,157.5,84.3z"/>
<path id="XMLID_314_" class="st1" d="M157.7,83.5c-0.8,4.2,6.1,19.1,18.7,22.1c12.5,3,26.4-5.9,26.7-11.3
	c0.2-4.1-6.1-19.1-18.7-22.1S158.5,79.3,157.7,83.5z"/>
<path id="XMLID_313_" class="st2" d="M159.3,83.6c-0.7,3.9,5.7,17.7,17.3,20.5c11.6,2.8,24.4-5.5,24.7-10.5
	c0.2-3.8-5.7-17.7-17.3-20.5C172.4,70.3,160.1,79.7,159.3,83.6z"/>
<circle id="XMLID_312_" class="st3" cx="168.8" cy="84.3" r="3.5"/>
<path id="XMLID_311_" class="st5" d="M155.9,90.9c-1.1,2.4,2.9,14.6,13.3,20.5c10.5,5.9,23.8,4,24.6,0.8"/>
<path id="XMLID_310_" class="st4" d="M157.4,89c-0.8,1,1.1,9.5,6.5,15.1c5.4,5.6,8.5,7.3,11.4,7.2"/>
<path id="XMLID_309_" class="st6" d="M149.3,89.2c-3.4-28.6-7.8-71.2-18.6-89.2h-15.3h0h-15.3C89.4,17.9,85,60.6,81.6,89.2
	c-1.5,12.3-4.9,21.7,0,26.5c10,9.8,33.8,5.9,33.8,5.9c0,0,23.8,3.9,33.8-5.9C154.2,110.8,150.7,101.5,149.3,89.2z"/>
<path id="XMLID_161_" class="st1" d="M150.3,95.9c-9.4,3.6-21.7,8.4-34.8,8.4c-13.7,0-25.9-5.2-34.8-8.8c-1.5,9.2-3.1,16.2,0.9,20.2
	c10,9.8,33.8,5.9,33.8,5.9c0,0,23.8,3.9,33.8-5.9C153.2,111.7,151.8,104.9,150.3,95.9z"/>
<path id="XMLID_305_" class="st7" d="M92.1,114L92.1,114c8.2,0,12,6.2,11.6,9.3v0c-0.4,3.1-3.6,5.5-7.2,5.1l-11.2-1
	c-3.6-0.3-6.3-3.2-5.9-6.3l0,0C79.7,118.1,83.2,114,92.1,114z"/>
<path id="XMLID_304_" class="st7" d="M137.2,114L137.2,114c-8.2,0-12,6.2-11.6,9.3l0,0c0.4,3.1,3.6,5.5,7.2,5.1l11.2-1
	c3.6-0.3,6.3-3.2,5.9-6.3v0C149.6,118.1,146,114,137.2,114z"/>
<g id="XMLID_301_">
	<path id="XMLID_303_" class="st2" d="M115.6,129.3c0,0-13.6-13-38.2-10.3c-33.3,3.7-37.8,27.8-40.6,33.1c-2.8,5.3-8.7,9.8-15.1,9.4
		c-5.4-0.3-10.6-3.3-10.1-9.2c0.3-3.8,3.9-5.8,8.2-5.3c4.1,0.4,4.6,5.1,1.8,6.2c0,0,3.4-1.1,3.5-5c0-1.5-0.7-3.8-3.7-5.2
		C12.6,139.3,0,146.7,0,157.7c0,8.6,9.3,39,62.6,32C115.9,182.6,119.3,143.6,115.6,129.3z"/>
	<path id="XMLID_302_" class="st2" d="M115.2,129.3c0,0,13.6-13,38.2-10.3c33.3,3.7,37.8,27.8,40.6,33.1c2.8,5.3,8.7,9.8,15.1,9.4
		c5.4-0.3,10.6-3.3,10.1-9.2c-0.3-3.8-3.9-5.8-8.2-5.3c-4.1,0.4-4.6,5.1-1.8,6.2c0,0-3.4-1.1-3.5-5c0-1.5,0.7-3.8,3.7-5.2
		c8.8-3.9,21.4,3.5,21.4,14.4c0,8.6-9.3,39-62.6,32C114.9,182.6,111.5,143.6,115.2,129.3z"/>
</g>
<path id="XMLID_300_" class="st8" d="M147.9,45.4"/>
<path id="XMLID_299_" class="st8" d="M101.7,45.4"/>
<g id="XMLID_87_">
	<path id="XMLID_88_" class="st2" d="M104.4,47.6C104.4,47.5,104.4,47.5,104.4,47.6c-0.1-0.1-0.1-0.1-0.2-0.1c0,0.1,0,0.1,0.1,0.1
		S104.4,47.5,104.4,47.6c-0.3,0-0.6,0-0.8,0c-0.2,0-0.5,0-0.7,0c0,0,0,0,0,0c0,0,0,0,0,0s0,0,0,0v0c0,0,0,0-0.1,0s0,0-0.1,0
		c0,0,0,0,0.1,0c-0.1,0.1-0.2,0.1-0.3,0.1c-0.1,0-0.3,0-0.4-0.1c0,0,0,0.1-0.1,0.1c0,0-0.1,0-0.1,0c-0.1,0-0.1,0-0.1-0.1
		c0,0-0.1-0.1-0.1,0c0,0.1,0,0.1,0,0.1c0,0,0.1,0,0,0c-0.3,0.1-0.5,0.1-0.8,0.1c-0.2,0-0.5,0-0.8,0v0h0.1c0,0,0,0-0.1,0
		c0,0-0.1,0-0.1,0h0c0,0,0,0,0,0c0,0,0,0,0,0c-0.1,0-0.1,0-0.1,0c0,0-0.1,0-0.1,0c0,0,0,0,0,0s0,0,0,0c0,0-0.1-0.1-0.1,0
		c0,0-0.1,0-0.2,0c0,0.1,0.1,0.1,0.1,0.1c0.1,0,0.1,0,0.1,0c0,0.1-0.1,0.1-0.2,0c-0.1,0-0.2,0-0.2,0c0,0,0,0,0,0s0,0,0,0
		c0,0-0.1,0-0.1,0c0,0,0,0-0.1,0c0,0,0,0,0,0c0,0,0,0,0,0.1c-0.1,0-0.1,0-0.2,0c0,0-0.1,0-0.2,0c0-0.1,0-0.1-0.1-0.1
		c-0.1,0-0.1,0-0.1,0.1c-0.1,0-0.2,0-0.3,0c-0.1,0-0.2,0-0.2,0.1c0,0-0.1,0-0.1,0c0,0-0.1,0-0.1,0c-0.1,0-0.1,0.1-0.1,0
		c0,0,0,0-0.1,0c0,0,0,0-0.1,0s-0.1,0-0.1,0c-0.1,0-0.1,0-0.2,0c-0.1,0-0.1,0-0.2,0c-0.3,0-0.5,0.1-0.7,0.1s-0.4,0-0.7,0
		c0,0,0,0,0,0c0,0,0,0,0,0c0,0,0,0,0,0c0,0,0,0,0,0c-0.1,0-0.1,0.1-0.1,0.1c-0.7,0-1.3,0-2,0c-0.7,0-1.3,0.1-2,0.1
		c-0.1-0.1-0.1-0.2-0.2-0.4c0-0.2,0-0.3-0.1-0.5c0,0,0.1-0.1,0.1-0.1c0,0,0.1,0,0.1-0.1c0.3,0,0.6,0,0.8,0c0.2,0,0.4,0,0.7,0
		c0.3,0,0.5,0,0.8-0.1c0.2,0,0.5,0,0.7,0c0.2,0,0.5,0,0.7,0c0.3,0,0.5,0,0.8,0c0,0,0.1,0,0.1,0s0.1,0,0.1,0c0.3,0,0.7-0.1,1.1-0.1
		s0.8,0,1.1,0c0,0,0.1,0,0.1,0c0,0,0.1,0,0.1,0c0.1,0,0.2,0,0.3,0c0.1,0,0.2,0,0.4,0c0.2,0,0.4,0,0.7,0c0.3,0,0.5,0,0.7,0
		c0.5,0,1,0,1.4-0.1s0.8,0,1.3,0c0.5,0,1.1,0,1.7-0.1s1.1-0.1,1.7,0c0.9-0.1,1.8-0.1,2.7-0.1s1.8,0,2.9-0.1c0,0,0,0,0,0c0,0,0,0,0,0
		c0.1,0,0.1,0,0.2,0c0.4,0,0.7,0,1,0c0.3,0,0.6,0,0.9,0c0.1,0,0.2,0,0.2,0c0.1,0,0.2,0,0.2,0c0.3,0,0.7-0.1,1.1,0c0.4,0,0.7,0,1.1,0
		c0.3,0,0.7,0,1-0.1c0.3,0,0.7,0,1,0c1.4-0.1,2.8-0.2,4.2-0.2c1.4,0,2.8-0.1,4.3-0.2c0.8,0,1.5,0,2.2,0c0.7,0,1.4-0.1,2.1-0.2
		c0,0,0.1,0,0.1,0c0,0,0,0,0.1,0c0.5-0.1,1.1-0.1,1.6-0.1c0.5,0,1,0,1.5-0.1c0,0,0,0,0,0c0.3,0,0.7,0,1,0c0.3,0,0.7,0,1.1,0
		c0.1,0,0.2,0.1,0.3,0.1c0.1,0,0.2,0.1,0.2,0.2c0,0.2,0,0.3-0.1,0.4c-0.1,0.1-0.2,0.2-0.2,0.3c-1.5,0-2.9,0-4.2,0.1
		c-1.4,0.1-2.7,0.2-4,0.2c-0.2,0.1-0.4,0.1-0.6,0.1c-0.2,0-0.5,0-0.7,0c-0.7,0.1-1.4,0.1-2.1,0.1s-1.4,0.1-2.1,0.1
		c-0.3,0-0.6,0-1,0.1c-0.3,0-0.6,0-0.9,0c-0.2,0.1-0.3,0.1-0.5,0.1c-0.2,0-0.4,0-0.5,0c0,0-0.1,0-0.1,0c0,0,0,0,0-0.1
		c-0.1,0.1-0.3,0.1-0.5,0.1c-0.2,0-0.3,0-0.5-0.1c0,0,0,0.1,0,0c0,0,0.1,0,0.1,0c-0.1,0-0.2,0-0.3,0c-0.1,0-0.2,0-0.3,0
		c-0.1,0-0.1,0.1-0.3,0.1s-0.2,0-0.3,0c-0.1,0.1-0.3,0.1-0.4,0.1c-0.1,0-0.3,0-0.4,0c-0.1,0-0.1,0-0.2,0s-0.1,0-0.2,0
		c0,0,0,0.1-0.1,0.1s-0.1,0-0.1,0.1c-0.1,0-0.2,0-0.3,0s-0.2,0-0.3-0.1c-0.1,0.1-0.2,0.1-0.4,0.1c-0.2,0-0.3,0-0.4,0
		c-0.1,0-0.3,0-0.4,0s-0.2,0-0.3,0c0,0-0.1,0-0.1,0c0,0-0.1,0-0.1,0c-0.1-0.1-0.2-0.1-0.3,0c-0.1,0.1-0.2,0.1-0.3,0c0,0-0.1,0-0.1,0
		c0,0,0,0-0.1,0c-0.4,0-0.8,0-1.1,0s-0.7,0.1-1.1,0.1c-0.1,0-0.1,0-0.1,0s0,0-0.1,0c0,0,0,0,0,0.1c0,0,0,0,0,0c0,0,0,0,0-0.1
		c0,0-0.1,0-0.1,0.1c0,0-0.1,0-0.1,0c-0.1,0-0.1,0,0,0c0.1,0,0.1,0,0-0.1c-0.1,0-0.1,0-0.1,0c0,0.1,0,0.1,0,0c0,0,0,0.1,0,0.1
		c0,0,0,0,0,0.1c-0.8,0-1.6,0-2.3,0.1c-0.8,0.1-1.6,0.1-2.4,0.1c-0.1,0-0.1,0-0.2,0.1c-0.1,0-0.2,0-0.2-0.1c-0.1,0.1-0.2,0.1-0.3,0
		c0,0,0,0,0.1,0c0,0,0.1,0,0.1,0c0,0-0.1,0-0.1,0c0,0-0.1,0-0.1,0c0,0,0,0,0,0c0,0,0,0,0,0.1c-0.1,0-0.1,0-0.2,0s-0.1,0-0.2,0
		c0,0,0,0,0,0c0,0,0,0,0,0c0,0-0.1,0-0.1,0c0,0,0,0.1,0,0.1c0,0,0,0-0.1,0c0,0,0,0,0-0.1c0,0,0,0,0-0.1c-0.1,0-0.2,0-0.2,0.1
		c-0.1,0-0.1,0-0.2,0c0,0-0.1,0-0.2,0v-0.1c0,0,0,0,0,0c0,0,0,0,0,0.1c-0.1,0-0.1,0-0.2,0C104.5,47.6,104.4,47.6,104.4,47.6z
		 M95.8,47.8C95.8,47.8,95.9,47.8,95.8,47.8c0.1,0,0.1,0,0.1,0C95.9,47.7,95.8,47.8,95.8,47.8z M96.5,47.8
		C96.5,47.7,96.5,47.7,96.5,47.8C96.5,47.7,96.5,47.7,96.5,47.8C96.5,47.7,96.5,47.8,96.5,47.8z M98.3,47.7
		C98.3,47.7,98.3,47.7,98.3,47.7C98.4,47.7,98.4,47.7,98.3,47.7L98.3,47.7z M98.4,47.7c0.1,0,0.2,0,0.2,0c0.1,0,0.1,0,0.2,0
		c-0.1,0-0.1,0-0.2,0C98.6,47.6,98.5,47.7,98.4,47.7z M99.2,47.6C99.2,47.6,99.2,47.6,99.2,47.6c-0.1,0-0.1,0-0.1,0
		C99.1,47.7,99.2,47.7,99.2,47.6C99.2,47.7,99.2,47.7,99.2,47.6z M100.1,47.7C100.1,47.7,100.2,47.6,100.1,47.7L100.1,47.7
		L100.1,47.7z M100.7,47.6C100.6,47.6,100.6,47.6,100.7,47.6C100.7,47.7,100.7,47.6,100.7,47.6z M100.8,47.6
		C100.8,47.6,100.8,47.6,100.8,47.6c0.1,0,0.1,0,0.1,0C100.9,47.6,100.8,47.6,100.8,47.6z M101.9,47.6c0.1,0,0.1,0,0.1,0
		C102,47.5,101.9,47.5,101.9,47.6z M102.3,47.5C102.2,47.5,102.2,47.5,102.3,47.5C102.3,47.6,102.3,47.6,102.3,47.5z M102.4,47.5
		C102.4,47.5,102.3,47.5,102.4,47.5C102.4,47.6,102.4,47.6,102.4,47.5z M102.5,47.6c0.1,0,0.1,0,0.1,0
		C102.6,47.5,102.5,47.5,102.5,47.6z M103.1,47.5C103.1,47.5,103.1,47.5,103.1,47.5c-0.1,0-0.1,0-0.2,0
		C103,47.6,103,47.6,103.1,47.5C103.1,47.6,103.1,47.6,103.1,47.5z M103.1,47.5c0,0,0.1,0.1,0.2,0c0.1,0,0.2,0,0.2,0
		c0,0-0.1-0.1-0.2,0C103.3,47.5,103.2,47.5,103.1,47.5z M103.7,47.5C103.7,47.5,103.7,47.5,103.7,47.5c0.1,0,0.1,0,0.1,0
		C103.7,47.5,103.7,47.5,103.7,47.5C103.7,47.5,103.7,47.5,103.7,47.5z M104.5,47.5C104.5,47.5,104.5,47.5,104.5,47.5
		c0.1,0,0.1,0,0.1,0C104.6,47.5,104.6,47.5,104.5,47.5C104.5,47.5,104.5,47.5,104.5,47.5z M104.9,47.5
		C104.9,47.5,104.9,47.5,104.9,47.5C104.8,47.5,104.8,47.5,104.9,47.5C104.9,47.5,104.9,47.5,104.9,47.5
		C104.9,47.5,104.9,47.5,104.9,47.5z M105,47.5C105,47.4,105,47.4,105,47.5C105,47.5,105,47.5,105,47.5z M105.5,47.4
		C105.5,47.4,105.5,47.4,105.5,47.4C105.5,47.5,105.5,47.4,105.5,47.4z M106,47.5h0.2c0,0-0.1,0-0.1,0S106,47.4,106,47.5z
		 M106.4,47.4C106.4,47.4,106.4,47.4,106.4,47.4C106.4,47.4,106.4,47.4,106.4,47.4z M106.5,47.5c0.1,0,0.1,0,0.2,0
		C106.7,47.4,106.6,47.4,106.5,47.5C106.5,47.4,106.5,47.4,106.5,47.5z M106.8,47.4C106.8,47.4,106.7,47.4,106.8,47.4
		C106.8,47.4,106.9,47.4,106.8,47.4z M107,47.4c0,0,0.1,0,0.1,0c0,0,0,0,0-0.1L107,47.4L107,47.4z M107.7,47.3
		C107.6,47.3,107.6,47.3,107.7,47.3C107.7,47.3,107.7,47.3,107.7,47.3z M107.9,47.4C107.9,47.4,107.8,47.4,107.9,47.4
		C107.9,47.4,107.9,47.4,107.9,47.4C108,47.4,107.9,47.4,107.9,47.4z M108.1,47.4C108,47.4,108,47.4,108.1,47.4
		C108,47.4,108,47.4,108.1,47.4C108.1,47.4,108.1,47.4,108.1,47.4z M108.1,47.3C108.1,47.3,108.1,47.3,108.1,47.3
		C108.1,47.2,108.1,47.3,108.1,47.3z M109,47.3C109,47.3,108.9,47.3,109,47.3C109,47.4,109.1,47.4,109,47.3
		C109.1,47.3,109,47.3,109,47.3z M109.1,47.4c0,0,0.1,0,0.1,0C109.3,47.3,109.2,47.3,109.1,47.4C109.1,47.3,109.1,47.3,109.1,47.4z
		 M110.6,47.3c0.1,0,0.1,0,0.1,0C110.6,47.3,110.6,47.3,110.6,47.3c0-0.1-0.1-0.1-0.1,0C110.5,47.3,110.5,47.3,110.6,47.3z
		 M111.1,47.3c0-0.1,0-0.1-0.1-0.1c-0.1,0-0.1,0-0.2,0c0,0.1,0.1,0.1,0.1,0.1C111,47.3,111.1,47.3,111.1,47.3z M110.9,47.2
		C110.9,47.2,110.9,47.2,110.9,47.2c0.1,0,0.2,0,0.1,0C111,47.1,111,47.1,110.9,47.2C110.9,47.2,110.9,47.2,110.9,47.2z M111.5,47.2
		C111.4,47.2,111.4,47.2,111.5,47.2C111.5,47.2,111.5,47.2,111.5,47.2z M111.6,47.2C111.6,47.2,111.6,47.2,111.6,47.2
		C111.6,47.2,111.6,47.2,111.6,47.2z M112.3,47.2C112.3,47.2,112.3,47.2,112.3,47.2C112.3,47.2,112.3,47.2,112.3,47.2z M113.6,47.2
		C113.6,47.2,113.5,47.2,113.6,47.2C113.6,47.2,113.6,47.2,113.6,47.2z M113.7,47.2C113.7,47.2,113.7,47.2,113.7,47.2
		C113.7,47.2,113.7,47.2,113.7,47.2z M113.8,47.1c0.1,0,0.1,0,0.1,0C113.8,47.1,113.8,47.1,113.8,47.1
		C113.8,47.1,113.8,47.1,113.8,47.1z M113.9,47.2c0.1,0,0.1,0,0.2,0c0.1,0,0.1,0,0.1-0.1c0,0-0.1,0-0.2,0
		C114,47.2,113.9,47.2,113.9,47.2z M114.7,47.1C114.6,47.1,114.6,47.1,114.7,47.1c-0.1,0-0.2,0-0.2,0
		C114.5,47.1,114.5,47.2,114.7,47.1C114.6,47.2,114.6,47.2,114.7,47.1z M115,47C115,47,115,47,115,47C114.9,47,114.9,47,115,47
		C115,47,115,47,115,47C115,47.1,115,47.1,115,47z M115.5,47.1C115.5,47.1,115.5,47.1,115.5,47.1C115.5,47.1,115.5,47.1,115.5,47.1z
		 M115.8,47.2C115.8,47.2,115.9,47.1,115.8,47.2C115.8,47.1,115.8,47.1,115.8,47.2c-0.1,0-0.1,0-0.1,0
		C115.7,47.2,115.8,47.2,115.8,47.2z M116,47.1C116,47.1,116,47.1,116,47.1C116,47.1,116,47.1,116,47.1z M116,47.1
		C116.1,47.1,116.1,47.1,116,47.1C116.1,47,116.1,47,116,47.1z M116.2,47.1L116.2,47.1C116.2,47.2,116.2,47.1,116.2,47.1
		c0.1,0,0.1,0,0.1,0c0,0,0,0,0,0C116.3,47.1,116.3,47.1,116.2,47.1C116.2,47.1,116.2,47.1,116.2,47.1z M116.4,47.1
		C116.4,47.1,116.4,47.1,116.4,47.1c0.1,0,0.1,0,0.1,0C116.5,47.1,116.5,47.1,116.4,47.1C116.4,47.1,116.4,47.1,116.4,47.1z
		 M117.1,47c-0.1,0-0.1,0-0.1,0c0,0-0.1,0-0.1,0c0,0.1,0,0.1,0.1,0.1C117,47.1,117.1,47.1,117.1,47z M117.3,47
		C117.3,47,117.3,47,117.3,47C117.3,47,117.3,47,117.3,47C117.4,47.1,117.4,47.1,117.3,47C117.4,47,117.4,47,117.3,47z M117.5,47
		c0,0,0.1,0,0.1,0c0,0,0.1,0,0.1-0.1c0,0-0.1,0-0.1,0C117.6,47,117.6,47,117.5,47z M118.8,47c0,0,0.1,0,0.1,0
		C119,47,118.9,47,118.8,47c0-0.1-0.1,0-0.1,0C118.8,47,118.8,47,118.8,47z M119.5,47C119.4,47,119.4,47,119.5,47
		C119.5,47,119.5,47,119.5,47z M119.7,46.8C119.6,46.8,119.6,46.8,119.7,46.8C119.7,46.9,119.7,46.9,119.7,46.8z M119.8,47
		C119.8,47,119.8,47,119.8,47c-0.1,0-0.1,0-0.1,0C119.7,47,119.7,47,119.8,47C119.8,47,119.8,47,119.8,47z M120,47
		C120,46.9,119.9,46.9,120,47c-0.1,0-0.1,0-0.1,0C119.9,46.9,119.9,46.9,120,47C119.9,47,120,47,120,47z M120.2,46.9
		C120.2,46.9,120.1,46.9,120.2,46.9C120.2,47,120.2,46.9,120.2,46.9z M120.9,46.9C120.8,46.9,120.8,46.9,120.9,46.9
		c-0.1,0-0.1,0-0.1,0C120.8,46.9,120.8,46.9,120.9,46.9C120.8,46.9,120.9,46.9,120.9,46.9z M121,46.9C121,46.9,121,46.9,121,46.9
		c-0.1,0-0.1,0-0.1,0C120.9,46.9,120.9,46.9,121,46.9C121,46.9,121,46.9,121,46.9z M121.1,46.9C121.1,46.9,121.1,46.9,121.1,46.9
		c0.1,0,0.1,0,0.2,0C121.2,46.9,121.2,46.9,121.1,46.9C121.1,46.9,121.1,46.9,121.1,46.9z M121.3,46.9
		C121.3,46.9,121.3,46.9,121.3,46.9C121.3,46.9,121.3,46.9,121.3,46.9z M121.9,46.8C121.8,46.8,121.8,46.8,121.9,46.8
		C121.8,46.9,121.9,46.9,121.9,46.8z M122.2,46.8C122.1,46.9,122.1,46.9,122.2,46.8C122.2,46.8,122.2,46.8,122.2,46.8z M122.5,46.8
		C122.5,46.8,122.5,46.8,122.5,46.8C122.5,46.8,122.5,46.8,122.5,46.8z M123.5,46.8C123.5,46.8,123.5,46.8,123.5,46.8
		C123.5,46.8,123.5,46.8,123.5,46.8z M124.2,46.8C124.2,46.8,124.2,46.8,124.2,46.8C124.2,46.7,124.2,46.7,124.2,46.8
		C124.1,46.8,124.1,46.8,124.2,46.8C124.1,46.7,124.1,46.7,124.2,46.8C124.1,46.8,124.1,46.8,124.2,46.8
		C124.2,46.8,124.2,46.8,124.2,46.8z M124.5,46.8C124.6,46.8,124.6,46.8,124.5,46.8C124.5,46.7,124.5,46.7,124.5,46.8z M125.5,46.7
		C125.5,46.7,125.4,46.7,125.5,46.7c-0.1,0-0.1,0-0.1,0C125.4,46.7,125.4,46.7,125.5,46.7C125.5,46.7,125.5,46.7,125.5,46.7z
		 M125.7,46.7L125.7,46.7L125.7,46.7L125.7,46.7L125.7,46.7z M126.9,46.7C126.9,46.7,126.9,46.6,126.9,46.7
		C126.9,46.6,126.9,46.6,126.9,46.7z"/>
</g>
<g id="XMLID_14_">
	<path id="XMLID_15_" class="st2" d="M126.4,89.1c0,0-0.1,0-0.2,0c0,0,0-0.1,0-0.1c0,0,0,0,0,0v0.1c-0.1,0-0.1,0-0.2,0
		c0,0-0.1,0-0.2,0c0-0.1-0.1-0.1-0.2-0.1c0,0,0,0,0,0.1c0,0,0,0,0,0.1c-0.1,0-0.1,0-0.1,0c0,0,0-0.1,0-0.1c-0.1,0-0.1,0-0.1,0
		c0,0,0,0,0,0c0,0,0,0,0,0c0,0-0.1,0-0.2,0s-0.1,0-0.2,0c0,0,0,0,0-0.1c0,0,0,0,0,0c0,0-0.1,0-0.1,0c0,0-0.1,0-0.1,0
		c0,0,0,0.1,0.1,0c0,0,0.1,0,0.1,0c-0.1,0.1-0.2,0.1-0.3,0c0,0.1-0.1,0.1-0.2,0.1c-0.1,0-0.2,0-0.2-0.1c-0.9,0-1.7,0-2.4-0.1
		c-0.8-0.1-1.5-0.1-2.3-0.1c0,0,0-0.1,0-0.1c0,0,0,0,0-0.1c0,0.1,0,0.1,0,0c0-0.1,0-0.1-0.1,0c0,0,0,0.1,0,0.1c0.1,0,0.1,0,0,0
		c0,0-0.1,0-0.1,0c0,0-0.1-0.1-0.1-0.1c0,0,0,0,0,0.1c0,0,0,0,0,0c0,0,0-0.1,0-0.1c-0.1,0-0.1,0-0.1,0s0,0-0.1,0
		c-0.4,0-0.8,0-1.1-0.1s-0.7,0-1.1,0c0,0-0.1,0-0.1,0c0,0,0,0-0.1,0c-0.1,0.1-0.2,0.1-0.3,0c-0.1-0.1-0.2-0.1-0.3,0c0,0,0,0-0.1,0
		c0,0-0.1,0-0.1,0c-0.1,0.1-0.2,0.1-0.3,0s-0.2,0-0.4,0c-0.1,0-0.2,0-0.4,0c-0.2,0-0.3,0-0.4-0.1c-0.1,0.1-0.2,0.1-0.3,0.1
		s-0.2,0-0.3,0c0,0,0,0-0.1-0.1s-0.1,0-0.1-0.1c-0.1,0-0.2,0-0.2,0s-0.1,0-0.2,0c-0.1,0-0.2,0-0.4,0c-0.1,0-0.3,0-0.4-0.1
		c-0.1,0-0.2,0-0.3,0s-0.2,0-0.3-0.1c-0.1,0-0.2,0.1-0.3,0c-0.1,0-0.2,0-0.3,0c0,0,0,0,0.1,0c0,0,0,0,0,0c-0.1,0-0.3,0.1-0.5,0.1
		c-0.2,0-0.4,0-0.5-0.1c0,0,0,0,0,0.1c0,0,0,0-0.1,0c-0.2,0-0.3,0-0.5,0c-0.2,0-0.4,0-0.5-0.1c-0.3,0-0.6,0.1-0.9,0
		c-0.3,0-0.7-0.1-1-0.1c-0.7,0-1.4,0-2.1-0.1s-1.4-0.1-2.1-0.1c-0.2,0-0.4,0-0.7,0c-0.3,0-0.5,0-0.6-0.1c-1.3,0-2.6-0.1-4-0.2
		c-1.4-0.1-2.8-0.1-4.2-0.1c-0.1-0.1-0.2-0.2-0.2-0.3c-0.1-0.1-0.1-0.3-0.1-0.4c0-0.1,0.1-0.1,0.2-0.2c0.1,0,0.2-0.1,0.3-0.1
		c0.4,0,0.7,0,1.1,0c0.3,0,0.7,0,1,0c0,0,0,0,0,0c0.5,0.1,1,0.1,1.5,0.1c0.5,0,1.1,0,1.6,0.1c0,0,0.1,0,0.1,0c0,0,0,0,0.1,0
		c0.7,0.1,1.4,0.1,2.1,0.2c0.7,0,1.4,0.1,2.2,0c1.5,0.1,2.9,0.2,4.3,0.2c1.4,0,2.8,0.1,4.2,0.2c0.3,0,0.7,0,1,0c0.3,0,0.7,0,1,0.1
		c0.4,0,0.7,0,1.1,0c0.4,0,0.7,0,1.1,0c0.1,0,0.2,0,0.2,0c0.1,0,0.2,0,0.2,0c0.3,0,0.6,0,0.9,0c0.3,0,0.6,0,1,0c0,0.1,0.1,0.1,0.2,0
		c0,0,0,0,0,0c0,0,0,0,0,0c1,0.1,2,0.1,2.9,0.1s1.8,0,2.7,0.1c0.5,0,1.1,0,1.7,0s1.1,0.1,1.7,0.1c0.5,0,0.9,0,1.3,0s0.8,0,1.4,0.1
		c0.2,0,0.5,0,0.7,0c0.2,0,0.5,0,0.7,0c0.1,0,0.2,0,0.4,0c0.1,0,0.2,0,0.3,0c0,0,0.1,0,0.1,0c0,0,0.1,0,0.1,0c0.3,0,0.7,0,1.1,0
		s0.8,0,1.1,0.1c0,0,0.1,0,0.1,0s0.1,0,0.1,0c0.3,0,0.6,0,0.8,0c0.2,0,0.5,0,0.7,0c0.2,0,0.5,0,0.7,0c0.2,0,0.5,0,0.8,0.1
		c0.2,0,0.4,0,0.7,0c0.2,0,0.5,0.1,0.8,0c0,0,0.1,0.1,0.1,0.1c0,0,0.1,0,0.1,0.1c0,0.2-0.1,0.3-0.1,0.5c0,0.2-0.1,0.3-0.2,0.4
		c-0.7,0-1.3-0.1-2-0.1c-0.7,0-1.3-0.1-2,0c0,0-0.1,0-0.1-0.1c0,0,0,0,0,0c0,0,0,0,0,0c0,0,0,0,0,0c0,0,0,0,0,0c-0.3,0-0.5,0-0.7,0
		s-0.4,0-0.7-0.1c-0.1,0-0.1,0-0.2,0c-0.1,0-0.1,0-0.2,0c0,0-0.1,0-0.1,0s-0.1,0-0.1,0c0,0-0.1,0-0.1,0c0,0,0,0-0.1,0
		c0,0-0.1,0-0.1,0c0,0-0.1,0-0.1,0c0-0.1-0.1-0.1-0.2-0.1c-0.1,0-0.2,0-0.3,0c0,0-0.1,0-0.1-0.1c-0.1,0-0.1,0-0.1,0.1
		c-0.1,0-0.1,0-0.2,0c0,0-0.1,0-0.2,0c0,0,0,0,0-0.1c0,0,0,0,0,0c0,0-0.1,0-0.1,0c0,0,0,0-0.1,0c0,0,0,0,0,0s0,0,0,0
		c-0.1,0-0.2,0-0.2,0c-0.1,0-0.2,0-0.2,0c0,0,0.1,0,0.1,0c0.1,0,0.1,0,0.1-0.1c-0.1,0-0.2,0-0.2,0c0,0-0.1,0-0.1,0c0,0,0,0,0,0
		s0,0,0,0c-0.1,0-0.1,0-0.1,0c0,0-0.1,0-0.1,0c0,0,0,0,0,0c0,0,0,0,0,0h0c0,0,0,0-0.1,0c0,0-0.1,0-0.1,0h0.1v0c-0.3,0-0.5,0-0.8,0
		c-0.2,0-0.5,0-0.8-0.1c0,0,0,0,0,0c0,0,0.1,0,0-0.1c-0.1,0-0.1,0-0.1,0c0,0-0.1,0.1-0.1,0.1c0,0-0.1,0-0.1,0c0,0-0.1,0-0.1-0.1
		c-0.1,0-0.2,0.1-0.4,0.1c-0.1,0-0.2,0-0.3-0.1c0,0,0.1,0,0.1,0c0,0,0,0-0.1,0s0,0-0.1,0v0c0,0,0,0,0,0s0,0,0,0c0,0,0,0,0,0
		c-0.3,0-0.5,0-0.7,0c-0.2,0-0.5,0-0.8,0c0,0,0.1-0.1,0.1,0s0.1,0,0.1-0.1c0,0-0.1,0-0.1,0c0,0-0.1,0-0.1,0.1
		C126.4,89.1,126.4,89.1,126.4,89.1z M103.9,88.1C103.9,88.2,103.9,88.2,103.9,88.1C104,88.2,104,88.1,103.9,88.1z M105.2,88.3
		L105.2,88.3L105.2,88.3L105.2,88.3L105.2,88.3z M105.4,88.3C105.4,88.3,105.4,88.3,105.4,88.3C105.5,88.2,105.5,88.2,105.4,88.3
		C105.4,88.3,105.4,88.3,105.4,88.3C105.3,88.3,105.4,88.3,105.4,88.3z M106.3,88.3C106.3,88.3,106.3,88.3,106.3,88.3
		C106.3,88.3,106.3,88.3,106.3,88.3z M106.7,88.3C106.7,88.3,106.8,88.3,106.7,88.3C106.8,88.3,106.7,88.3,106.7,88.3
		C106.7,88.3,106.7,88.3,106.7,88.3C106.7,88.3,106.6,88.3,106.7,88.3C106.6,88.3,106.6,88.3,106.7,88.3
		C106.7,88.3,106.7,88.3,106.7,88.3z M107.4,88.3C107.4,88.3,107.4,88.3,107.4,88.3C107.3,88.3,107.3,88.3,107.4,88.3z M108.4,88.4
		C108.4,88.4,108.4,88.4,108.4,88.4C108.3,88.4,108.4,88.4,108.4,88.4z M108.7,88.4C108.7,88.4,108.7,88.4,108.7,88.4
		C108.6,88.3,108.6,88.3,108.7,88.4z M109,88.4C109.1,88.4,109,88.4,109,88.4C109,88.4,109,88.4,109,88.4z M109.6,88.4
		C109.6,88.4,109.6,88.4,109.6,88.4C109.5,88.4,109.5,88.4,109.6,88.4z M109.7,88.4C109.7,88.4,109.6,88.4,109.7,88.4
		C109.6,88.5,109.6,88.5,109.7,88.4C109.7,88.5,109.7,88.5,109.7,88.4C109.7,88.4,109.7,88.4,109.7,88.4z M109.9,88.5
		C109.9,88.5,109.9,88.5,109.9,88.5C109.9,88.4,109.9,88.4,109.9,88.5C109.9,88.4,109.8,88.4,109.9,88.5
		C109.8,88.5,109.8,88.5,109.9,88.5z M110,88.5C110.1,88.5,110.1,88.5,110,88.5C110.1,88.4,110.1,88.4,110,88.5
		C110,88.4,110,88.4,110,88.5C110,88.5,110,88.5,110,88.5z M110.7,88.5C110.7,88.5,110.7,88.5,110.7,88.5
		C110.6,88.5,110.7,88.5,110.7,88.5z M110.9,88.5C111,88.5,111,88.5,110.9,88.5C111,88.5,111,88.4,110.9,88.5
		C110.9,88.5,110.9,88.5,110.9,88.5C110.9,88.5,110.9,88.5,110.9,88.5z M111.1,88.5C111.1,88.5,111.1,88.5,111.1,88.5
		C111.2,88.5,111.2,88.5,111.1,88.5C111.1,88.5,111.1,88.5,111.1,88.5C111,88.5,111,88.5,111.1,88.5z M111.2,88.4
		C111.2,88.4,111.2,88.4,111.2,88.4C111.2,88.4,111.2,88.4,111.2,88.4z M111.4,88.5C111.4,88.5,111.4,88.5,111.4,88.5
		C111.4,88.5,111.4,88.5,111.4,88.5z M112.1,88.5c0,0-0.1,0-0.1,0c-0.1,0-0.1,0-0.1,0.1c0,0,0.1,0,0.1,0
		C112,88.6,112.1,88.6,112.1,88.5z M113.2,88.5c0,0-0.1,0-0.1,0C113.1,88.6,113.2,88.6,113.2,88.5c0,0.1,0.1,0.1,0.1,0
		C113.3,88.5,113.3,88.5,113.2,88.5z M113.4,88.6C113.4,88.6,113.5,88.6,113.4,88.6c0.1,0,0.1,0,0.1,0
		C113.6,88.5,113.5,88.5,113.4,88.6C113.5,88.6,113.5,88.6,113.4,88.6z M113.9,88.6c0.1,0,0.1,0,0.1-0.1
		C114,88.6,114,88.6,113.9,88.6c0-0.1-0.1-0.1-0.1-0.1C113.8,88.6,113.8,88.6,113.9,88.6z M114.4,88.6
		C114.4,88.6,114.4,88.6,114.4,88.6C114.3,88.7,114.4,88.7,114.4,88.6C114.4,88.7,114.4,88.6,114.4,88.6
		C114.5,88.6,114.4,88.6,114.4,88.6z M114.6,88.6C114.6,88.6,114.5,88.6,114.6,88.6C114.5,88.7,114.5,88.7,114.6,88.6
		C114.5,88.7,114.6,88.6,114.6,88.6C114.6,88.7,114.6,88.7,114.6,88.6L114.6,88.6C114.6,88.6,114.6,88.6,114.6,88.6z M114.8,88.6
		C114.8,88.7,114.8,88.7,114.8,88.6C114.8,88.6,114.8,88.6,114.8,88.6z M114.9,88.6C114.9,88.6,114.9,88.6,114.9,88.6
		C114.8,88.6,114.8,88.6,114.9,88.6z M115.1,88.7C115.2,88.7,115.1,88.6,115.1,88.7c-0.1-0.1-0.1-0.1-0.2-0.1c0,0,0,0.1,0.1,0.1
		C115.1,88.7,115.1,88.7,115.1,88.7z M115.4,88.7C115.4,88.7,115.4,88.6,115.4,88.7C115.3,88.7,115.3,88.7,115.4,88.7z M115.9,88.6
		C115.9,88.6,115.9,88.6,115.9,88.6C115.9,88.5,115.9,88.5,115.9,88.6C115.9,88.5,115.9,88.5,115.9,88.6
		C115.9,88.6,115.9,88.6,115.9,88.6z M116.3,88.7C116.3,88.7,116.3,88.7,116.3,88.7C116.3,88.6,116.3,88.6,116.3,88.7
		C116.2,88.7,116.2,88.7,116.3,88.7C116.2,88.7,116.2,88.7,116.3,88.7z M116.8,88.7c-0.1,0-0.1,0-0.2,0
		C116.7,88.7,116.7,88.8,116.8,88.7c0,0,0.1,0,0.2,0C116.9,88.7,116.9,88.7,116.8,88.7z M117,88.6C117,88.6,117,88.6,117,88.6
		C117,88.7,117,88.7,117,88.6C117.1,88.6,117.1,88.6,117,88.6z M117.1,88.7C117.1,88.7,117.1,88.7,117.1,88.7
		C117.2,88.7,117.1,88.7,117.1,88.7z M117.3,88.7C117.3,88.7,117.3,88.7,117.3,88.7C117.2,88.7,117.3,88.7,117.3,88.7z M118.5,88.8
		C118.5,88.8,118.6,88.8,118.5,88.8C118.6,88.8,118.6,88.8,118.5,88.8z M119.3,88.8C119.3,88.8,119.2,88.8,119.3,88.8
		C119.2,88.8,119.2,88.8,119.3,88.8z M119.4,88.8C119.4,88.8,119.4,88.8,119.4,88.8C119.4,88.8,119.4,88.8,119.4,88.8z M119.9,88.9
		c0.1,0,0.1,0,0.1-0.1C120,88.8,119.9,88.8,119.9,88.9c-0.1-0.1-0.2-0.1-0.2,0C119.8,88.8,119.8,88.8,119.9,88.9z M119.9,88.7
		C119.9,88.7,119.9,88.7,119.9,88.7C119.8,88.7,119.8,88.7,119.9,88.7C119.9,88.8,120,88.7,119.9,88.7
		C119.9,88.7,119.9,88.7,119.9,88.7z M120.4,88.8C120.3,88.8,120.3,88.8,120.4,88.8c-0.1,0-0.2,0-0.2,0c0,0,0,0,0.1,0
		C120.3,88.9,120.4,88.8,120.4,88.8z M121.7,88.9C121.6,88.9,121.6,88.9,121.7,88.9C121.6,88.9,121.7,88.9,121.7,88.9
		C121.8,88.9,121.7,88.9,121.7,88.9z M121.8,88.9c0,0.1,0.1,0.1,0.1,0C121.9,88.8,121.9,88.8,121.8,88.9
		C121.8,88.9,121.8,88.9,121.8,88.9z M122.7,88.8C122.7,88.8,122.7,88.8,122.7,88.8C122.8,88.8,122.7,88.8,122.7,88.8z M122.8,89
		C122.8,89,122.9,88.9,122.8,89C122.9,88.9,122.8,88.9,122.8,89C122.8,88.9,122.8,88.9,122.8,89z M122.9,88.9
		C122.9,89,123,88.9,122.9,88.9C123,88.9,123,88.9,122.9,88.9C122.9,88.9,122.9,88.9,122.9,88.9z M123.2,88.8
		C123.2,88.8,123.2,88.8,123.2,88.8C123.2,88.8,123.2,88.8,123.2,88.8z M123.9,88.9h-0.1c0,0,0,0.1,0,0.1
		C123.8,89,123.9,89,123.9,88.9L123.9,88.9z M124.1,89C124.1,88.9,124.1,88.9,124.1,89C124,88.9,124,89,124.1,89z M124.3,88.9
		c0,0-0.1,0-0.1,0C124.2,89,124.2,89,124.3,88.9C124.3,88.9,124.3,88.9,124.3,88.9z M124.5,89C124.5,88.9,124.4,88.9,124.5,89
		C124.4,89,124.4,89,124.5,89z M124.7,89c-0.1,0-0.1,0-0.1,0h0.2C124.8,89,124.8,89,124.7,89z M125.4,89C125.4,89,125.4,89,125.4,89
		C125.3,89,125.4,89,125.4,89z M125.8,89C125.8,89,125.8,89,125.8,89C125.9,89.1,125.9,89.1,125.8,89z M126,89C126,89,126,89,126,89
		C126,89,126,89,126,89C125.9,89,125.9,89,126,89C126,89.1,126,89.1,126,89z M126.3,89c0,0-0.1,0-0.1,0
		C126.2,89.1,126.3,89.1,126.3,89C126.3,89,126.3,89,126.3,89C126.4,89,126.4,89,126.3,89z M127.1,89C127.1,89,127.1,89,127.1,89
		C127.1,89.1,127.1,89.1,127.1,89C127.1,89.1,127.2,89.1,127.1,89C127.2,89,127.2,89,127.1,89z M127.5,89c-0.1,0-0.1,0-0.2,0
		C127.3,89.1,127.4,89.1,127.5,89c0.1,0.1,0.2,0.1,0.2,0C127.6,89.1,127.6,89,127.5,89z M127.8,89.1
		C127.8,89.1,127.9,89.1,127.8,89.1C127.9,89,127.8,89,127.8,89.1C127.8,89.1,127.7,89.1,127.8,89.1
		C127.7,89.1,127.8,89.1,127.8,89.1z M128.2,89.1c0,0,0.1,0,0.1,0C128.3,89.1,128.3,89.1,128.2,89.1z M128.5,89.1
		C128.5,89.1,128.5,89.1,128.5,89.1C128.4,89.1,128.5,89.1,128.5,89.1z M128.6,89.1C128.6,89.1,128.6,89.1,128.6,89.1
		C128.6,89.1,128.6,89.1,128.6,89.1z M128.8,89.1c0,0,0.1,0.1,0.1,0C128.9,89.1,128.9,89.1,128.8,89.1z M129.9,89.1
		C129.9,89.1,129.9,89.2,129.9,89.1c0.1,0,0.1,0,0.1,0C130,89.1,130,89.1,129.9,89.1z M130.2,89.2C130.2,89.2,130.2,89.2,130.2,89.2
		C130.2,89.2,130.2,89.2,130.2,89.2z M130.8,89.1L130.8,89.1C130.7,89.2,130.7,89.2,130.8,89.1L130.8,89.1z M131.7,89.2
		C131.7,89.2,131.7,89.2,131.7,89.2C131.7,89.2,131.7,89.2,131.7,89.2C131.7,89.2,131.6,89.2,131.7,89.2
		C131.6,89.2,131.6,89.2,131.7,89.2z M132.2,89.2c-0.1,0-0.1,0-0.2,0C132.1,89.2,132.2,89.2,132.2,89.2c0,0,0.1,0,0.2,0.1
		C132.4,89.2,132.3,89.2,132.2,89.2z M132.4,89.2C132.4,89.2,132.4,89.3,132.4,89.2C132.5,89.3,132.5,89.2,132.4,89.2L132.4,89.2z
		 M134.4,89.2C134.4,89.3,134.4,89.3,134.4,89.2C134.3,89.3,134.3,89.3,134.4,89.2C134.4,89.3,134.4,89.3,134.4,89.2z M134.9,89.3
		C134.9,89.3,134.9,89.3,134.9,89.3c0.1,0.1,0.1,0.1,0.1,0C135,89.3,135,89.3,134.9,89.3z"/>
</g>
</svg>
