<?xml version="1.0" encoding="utf-8"?>
<!-- Generator: Adobe Illustrator 19.0.0, SVG Export Plug-In . SVG Version: 6.00 Build 0)  -->
<svg version="1.1" id="Layer_1" xmlns="http://www.w3.org/2000/svg" xmlns:xlink="http://www.w3.org/1999/xlink" x="0px" y="0px"
	 viewBox="0 0 459 113.1" style="enable-background:new 0 0 459 113.1;" xml:space="preserve">
<style type="text/css">
	.st0{fill:#212121;stroke:#212121;stroke-width:0.5;stroke-miterlimit:10;}
	.st1{fill:#EF5451;stroke:#1E1D1D;stroke-width:0.5;stroke-miterlimit:10;}
</style>
<g id="XMLID_193_">
	<g id="XMLID_258_">
		<path id="XMLID_278_" class="st0" d="M15.9,60.3H3.2c-1,0-1.8-0.2-2.2-0.7c-0.5-0.5-0.7-1.2-0.7-2.2v-53c0-1,0.2-1.8,0.7-2.2
			c0.5-0.5,1.2-0.7,2.2-0.7h12.7c1,0,1.8,0.2,2.2,0.7c0.5,0.5,0.7,1.2,0.7,2.2v17.7h13.7V4.4c0-1,0.2-1.8,0.7-2.2
			c0.5-0.5,1.2-0.7,2.2-0.7h12.7c1,0,1.8,0.2,2.2,0.7C50.8,2.6,51,3.4,51,4.4v53c0,1-0.2,1.8-0.7,2.2c-0.5,0.5-1.2,0.7-2.2,0.7H35.4
			c-1,0-1.8-0.2-2.2-0.7c-0.5-0.5-0.7-1.2-0.7-2.2V39.2H18.8v18.2c0,1-0.2,1.8-0.7,2.2C17.6,60.1,16.9,60.3,15.9,60.3z"/>
		<path id="XMLID_275_" class="st0" d="M112.2,44.9c0,2.5-0.4,4.8-1.1,6.8c-0.7,2-2,3.8-3.9,5.2c-1.9,1.4-4.5,2.6-7.8,3.4
			c-3.3,0.8-7.5,1.2-12.5,1.2c-5.1,0-9.3-0.4-12.6-1.2c-3.3-0.8-5.9-1.9-7.8-3.4c-1.9-1.4-3.2-3.2-3.9-5.2c-0.7-2-1.1-4.3-1.1-6.8
			V17c0-2.5,0.4-4.8,1.1-6.8c0.7-2,2-3.8,3.9-5.3c1.9-1.5,4.5-2.6,7.8-3.4c3.3-0.8,7.5-1.2,12.6-1.2c5.1,0,9.2,0.4,12.5,1.2
			c3.3,0.8,5.9,2,7.8,3.4c1.9,1.5,3.2,3.2,3.9,5.3c0.7,2,1.1,4.3,1.1,6.8V44.9z M80,41.9c0,1.1,0.4,2,1.2,2.7
			c0.8,0.7,2.7,1.1,5.6,1.1c2.9,0,4.8-0.4,5.6-1.1c0.8-0.7,1.2-1.7,1.2-2.7V20c0-1-0.4-1.9-1.2-2.7c-0.8-0.7-2.7-1.1-5.6-1.1
			c-2.9,0-4.8,0.4-5.6,1.1C80.4,18,80,18.9,80,20V41.9z"/>
		<path id="XMLID_272_" class="st0" d="M138.1,60.3h-12.6c-1,0-1.8-0.2-2.2-0.7c-0.5-0.5-0.7-1.2-0.7-2.2v-53c0-1,0.2-1.8,0.7-2.2
			c0.5-0.5,1.2-0.7,2.2-0.7h27.2c6.1,0,10.3,1.3,12.6,3.8c2.3,2.5,3.5,5.8,3.5,9.9v3.8c0,2.3-0.3,4.2-1,5.8
			c-0.7,1.6-1.9,2.8-3.6,3.5c2.9,0.3,5.3,1.5,7.2,3.6c1.8,2.1,2.7,4.8,2.7,8.3v17.3c0,1-0.2,1.8-0.7,2.2c-0.5,0.5-1.2,0.7-2.2,0.7
			h-12.7c-1,0-1.8-0.2-2.2-0.7c-0.5-0.5-0.7-1.2-0.7-2.2V44.9c0-1.2-0.2-2.1-0.7-2.7c-0.5-0.6-1.3-0.9-2.4-0.9H141v16
			c0,1-0.2,1.8-0.7,2.2C139.9,60.1,139.1,60.3,138.1,60.3z M141,16.2v10.5h6.1c1.4,0,2.4-0.4,2.9-1.1c0.5-0.7,0.7-1.6,0.7-2.7V20
			c0-1.1-0.2-2-0.7-2.7c-0.5-0.7-1.4-1.1-2.9-1.1H141z"/>
		<path id="XMLID_269_" class="st0" d="M198.8,60.3h-12.6c-1,0-1.8-0.2-2.2-0.7c-0.5-0.5-0.7-1.2-0.7-2.2v-53c0-1,0.2-1.8,0.7-2.2
			c0.5-0.5,1.2-0.7,2.2-0.7h27.2c6.1,0,10.3,1.3,12.6,3.8s3.5,5.8,3.5,9.9v3.8c0,2.3-0.3,4.2-1,5.8c-0.7,1.6-1.9,2.8-3.6,3.5
			c2.9,0.3,5.3,1.5,7.2,3.6c1.8,2.1,2.7,4.8,2.7,8.3v17.3c0,1-0.2,1.8-0.7,2.2c-0.5,0.5-1.2,0.7-2.2,0.7h-12.7c-1,0-1.8-0.2-2.2-0.7
			c-0.5-0.5-0.7-1.2-0.7-2.2V44.9c0-1.2-0.2-2.1-0.7-2.7c-0.5-0.6-1.3-0.9-2.4-0.9h-11.4v16c0,1-0.2,1.8-0.7,2.2
			C200.6,60.1,199.9,60.3,198.8,60.3z M201.8,16.2v10.5h6.1c1.4,0,2.4-0.4,2.9-1.1c0.5-0.7,0.7-1.6,0.7-2.7V20c0-1.1-0.2-2-0.7-2.7
			c-0.5-0.7-1.4-1.1-2.9-1.1H201.8z"/>
		<path id="XMLID_267_" class="st0" d="M245.7,60.3c-1,0-1.8-0.2-2.2-0.7c-0.5-0.5-0.7-1.2-0.7-2.2v-9.7c0-1,0.2-1.8,0.7-2.2
			c0.5-0.5,1.2-0.7,2.2-0.7h8.1V17.3h-8.1c-1,0-1.8-0.2-2.2-0.7c-0.5-0.5-0.7-1.2-0.7-2.2V4.4c0-1,0.2-1.8,0.7-2.2
			c0.5-0.5,1.2-0.7,2.2-0.7h34.8c1,0,1.8,0.2,2.2,0.7c0.5,0.5,0.7,1.2,0.7,2.2v9.9c0,1-0.2,1.8-0.7,2.2c-0.5,0.5-1.2,0.7-2.2,0.7
			h-7.9v27.5h7.9c1,0,1.8,0.2,2.2,0.7c0.5,0.5,0.7,1.2,0.7,2.2v9.7c0,1-0.2,1.8-0.7,2.2c-0.5,0.5-1.2,0.7-2.2,0.7H245.7z"/>
		<path id="XMLID_263_" class="st0" d="M327.9,60.3h-31.4c-1,0-1.8-0.2-2.2-0.7c-0.5-0.5-0.7-1.2-0.7-2.2v-53c0-1,0.2-1.8,0.7-2.2
			c0.5-0.5,1.2-0.7,2.2-0.7h26.1c5.3,0,9.3,1,11.9,3.1c2.6,2,3.8,5.2,3.8,9.4v3.9c0,2.3-0.4,4.2-1.2,5.6c-0.8,1.4-2,2.5-3.6,3.2
			c3.5,0.3,6.1,1.5,7.8,3.6c1.7,2.1,2.5,5.1,2.5,9.1v7.5c0,4.6-1.3,8-3.9,10.1C337.3,59.3,333.3,60.3,327.9,60.3z M311.9,15.4v8.8
			h6.9c1,0,1.8-0.3,2.3-0.8c0.5-0.5,0.8-1.4,0.8-2.5v-2.3c0-1.1-0.3-1.9-0.8-2.5c-0.5-0.5-1.3-0.8-2.3-0.8H311.9z M311.9,36.8v9.6
			h10.6c1,0,1.8-0.3,2.3-0.8c0.5-0.5,0.8-1.4,0.8-2.5V40c0-1.1-0.3-1.9-0.8-2.4c-0.5-0.5-1.3-0.8-2.3-0.8H311.9z"/>
		<path id="XMLID_261_" class="st0" d="M397.4,60.3h-41.6c-1,0-1.8-0.2-2.2-0.7c-0.5-0.5-0.7-1.2-0.7-2.2v-53c0-1,0.2-1.8,0.7-2.2
			c0.5-0.5,1.2-0.7,2.2-0.7h12.7c1,0,1.8,0.2,2.2,0.7c0.5,0.5,0.7,1.2,0.7,2.2v40.5h11.2V31.6c0-1,0.2-1.8,0.7-2.2s1.2-0.7,2.2-0.7
			h11.9c1,0,1.8,0.2,2.2,0.7c0.5,0.5,0.7,1.2,0.7,2.2v25.8c0,1-0.2,1.8-0.7,2.2C399.1,60.1,398.4,60.3,397.4,60.3z"/>
		<path id="XMLID_259_" class="st0" d="M450.5,60.3h-37.9c-1,0-1.8-0.2-2.2-0.7c-0.5-0.5-0.7-1.2-0.7-2.2v-53c0-1,0.2-1.8,0.7-2.2
			c0.5-0.5,1.2-0.7,2.2-0.7h37.9c1,0,1.8,0.2,2.2,0.7c0.5,0.5,0.7,1.2,0.7,2.2V14c0,1-0.2,1.8-0.7,2.2c-0.5,0.5-1.2,0.7-2.2,0.7
			h-22.6v6.3h15.9c1,0,1.8,0.2,2.2,0.7c0.5,0.5,0.7,1.2,0.7,2.2v8.7c0,1-0.2,1.8-0.7,2.2c-0.5,0.5-1.2,0.7-2.2,0.7h-15.9v7h22.6
			c1,0,1.8,0.2,2.2,0.7c0.5,0.5,0.7,1.2,0.7,2.2v9.6c0,1-0.2,1.8-0.7,2.2C452.3,60.1,451.5,60.3,450.5,60.3z"/>
	</g>
	<g id="XMLID_237_">
		<path id="XMLID_256_" class="st0" d="M115.4,112.9h-12.8c-4.4,0-7.6-0.9-9.7-2.6c-2.1-1.7-3.2-4.4-3.2-8.1V85.9
			c0-3.6,1.1-6.3,3.2-8.1c2.1-1.8,5.4-2.6,9.7-2.6h12.8c0.7,0,1.1,0.1,1.4,0.4c0.3,0.3,0.4,0.8,0.4,1.4v6.3c0,0.7-0.1,1.1-0.4,1.4
			s-0.8,0.4-1.4,0.4h-10.5c-1.1,0-1.9,0.2-2.4,0.7c-0.5,0.4-0.8,1.1-0.8,2v12.5c0,0.9,0.3,1.5,0.8,1.9c0.5,0.4,1.3,0.6,2.4,0.6h10.5
			c0.7,0,1.1,0.1,1.4,0.4c0.3,0.3,0.4,0.8,0.4,1.4v6.2c0,0.7-0.1,1.1-0.4,1.4S116,112.9,115.4,112.9z"/>
		<path id="XMLID_254_" class="st0" d="M133.2,112.9h-8.1c-0.7,0-1.1-0.1-1.4-0.4c-0.3-0.3-0.4-0.8-0.4-1.4V77
			c0-0.7,0.1-1.1,0.4-1.4c0.3-0.3,0.8-0.4,1.4-0.4h8.1c0.7,0,1.1,0.1,1.4,0.4c0.3,0.3,0.4,0.8,0.4,1.4v11.4h8.8V77
			c0-0.7,0.1-1.1,0.4-1.4c0.3-0.3,0.8-0.4,1.4-0.4h8.1c0.7,0,1.1,0.1,1.4,0.4c0.3,0.3,0.4,0.8,0.4,1.4v34c0,0.7-0.1,1.1-0.4,1.4
			c-0.3,0.3-0.8,0.4-1.4,0.4h-8.1c-0.7,0-1.1-0.1-1.4-0.4c-0.3-0.3-0.4-0.8-0.4-1.4V99.4h-8.8V111c0,0.7-0.1,1.1-0.4,1.4
			C134.4,112.7,133.9,112.9,133.2,112.9z"/>
		<path id="XMLID_251_" class="st0" d="M173.7,111c0,0.7-0.1,1.1-0.4,1.4s-0.8,0.4-1.4,0.4h-7.7c-0.7,0-1.1-0.1-1.4-0.4
			s-0.4-0.8-0.4-1.4V97.2c0-1,0.2-2.3,0.5-3.6c0.3-1.4,0.8-3,1.5-4.8l4.6-11.9c0.2-0.6,0.5-1,1-1.3c0.4-0.3,1-0.4,1.7-0.4h14.1
			c0.7,0,1.2,0.1,1.7,0.4c0.4,0.3,0.8,0.7,1,1.3l4.6,11.9c0.7,1.8,1.2,3.4,1.5,4.8c0.3,1.4,0.5,2.6,0.5,3.6V111
			c0,0.7-0.1,1.1-0.4,1.4c-0.3,0.3-0.8,0.4-1.4,0.4H185c-0.7,0-1.2-0.1-1.5-0.4c-0.3-0.3-0.5-0.8-0.5-1.4v-7.3h-9.3V111z
			 M176.7,86.1l-2.5,8h8.2l-2.5-8c-0.1-0.3-0.3-0.5-0.4-0.7c-0.2-0.1-0.3-0.2-0.6-0.2h-1.3c-0.2,0-0.4,0.1-0.6,0.2
			C176.9,85.6,176.8,85.8,176.7,86.1z"/>
		<path id="XMLID_248_" class="st0" d="M211.2,112.9h-8.1c-0.7,0-1.1-0.1-1.4-0.4c-0.3-0.3-0.4-0.8-0.4-1.4V77
			c0-0.7,0.1-1.1,0.4-1.4c0.3-0.3,0.8-0.4,1.4-0.4h17.5c3.9,0,6.6,0.8,8.1,2.4s2.2,3.7,2.2,6.3v2.4c0,1.5-0.2,2.7-0.7,3.7
			c-0.4,1-1.2,1.8-2.3,2.2c1.9,0.2,3.4,1,4.6,2.3c1.2,1.3,1.8,3.1,1.8,5.3V111c0,0.7-0.1,1.1-0.4,1.4s-0.8,0.4-1.4,0.4h-8.1
			c-0.7,0-1.1-0.1-1.4-0.4s-0.4-0.8-0.4-1.4v-8c0-0.8-0.1-1.3-0.4-1.7c-0.3-0.4-0.8-0.6-1.5-0.6h-7.3V111c0,0.7-0.1,1.1-0.4,1.4
			S211.9,112.9,211.2,112.9z M213.1,84.6v6.7h3.9c0.9,0,1.5-0.2,1.8-0.7c0.3-0.5,0.5-1.1,0.5-1.8V87c0-0.7-0.2-1.3-0.5-1.8
			c-0.3-0.5-0.9-0.7-1.8-0.7H213.1z"/>
		<path id="XMLID_245_" class="st0" d="M250.9,111c0,0.7-0.1,1.1-0.4,1.4s-0.8,0.4-1.4,0.4h-7.7c-0.7,0-1.1-0.1-1.4-0.4
			s-0.4-0.8-0.4-1.4V97.2c0-1,0.2-2.3,0.5-3.6c0.3-1.4,0.8-3,1.5-4.8l4.6-11.9c0.2-0.6,0.5-1,1-1.3c0.4-0.3,1-0.4,1.7-0.4h14.1
			c0.7,0,1.2,0.1,1.7,0.4c0.4,0.3,0.8,0.7,1,1.3l4.6,11.9c0.7,1.8,1.2,3.4,1.5,4.8c0.3,1.4,0.5,2.6,0.5,3.6V111
			c0,0.7-0.1,1.1-0.4,1.4s-0.8,0.4-1.4,0.4h-7.9c-0.7,0-1.2-0.1-1.5-0.4c-0.3-0.3-0.5-0.8-0.5-1.4v-7.3h-9.3V111z M253.9,86.1
			l-2.5,8h8.2l-2.5-8c-0.1-0.3-0.3-0.5-0.4-0.7c-0.2-0.1-0.3-0.2-0.6-0.2h-1.3c-0.2,0-0.4,0.1-0.6,0.2
			C254.2,85.6,254,85.8,253.9,86.1z"/>
		<path id="XMLID_242_" class="st0" d="M298,112.9h-17.7c-0.7,0-1.1-0.1-1.4-0.4c-0.3-0.3-0.4-0.8-0.4-1.4V77c0-0.7,0.1-1.1,0.4-1.4
			c0.3-0.3,0.8-0.4,1.4-0.4H298c4.4,0,7.6,0.9,9.7,2.6c2.1,1.7,3.2,4.4,3.2,8.1v16.4c0,3.6-1.1,6.3-3.2,8.1
			C305.6,112,302.4,112.9,298,112.9z M290.4,85.1V103h6.2c0.8,0,1.5-0.2,1.9-0.6c0.4-0.4,0.6-1.1,0.6-1.9V87.7
			c0-0.9-0.2-1.5-0.6-1.9c-0.4-0.4-1-0.6-1.9-0.6H290.4z"/>
		<path id="XMLID_240_" class="st0" d="M343.8,112.9h-24.3c-0.7,0-1.1-0.1-1.4-0.4c-0.3-0.3-0.4-0.8-0.4-1.4V77
			c0-0.7,0.1-1.1,0.4-1.4c0.3-0.3,0.8-0.4,1.4-0.4h24.3c0.7,0,1.1,0.1,1.4,0.4c0.3,0.3,0.4,0.8,0.4,1.4v6.1c0,0.7-0.1,1.1-0.4,1.4
			c-0.3,0.3-0.8,0.4-1.4,0.4h-14.5v4h10.2c0.7,0,1.1,0.1,1.4,0.4c0.3,0.3,0.4,0.8,0.4,1.4v5.6c0,0.7-0.1,1.1-0.4,1.4
			s-0.8,0.4-1.4,0.4h-10.2v4.5h14.5c0.7,0,1.1,0.1,1.4,0.4c0.3,0.3,0.4,0.8,0.4,1.4v6.1c0,0.7-0.1,1.1-0.4,1.4
			C344.9,112.7,344.4,112.9,343.8,112.9z"/>
		<path id="XMLID_238_" class="st0" d="M369.4,112.9h-16.6c-0.7,0-1.1-0.1-1.4-0.4s-0.4-0.8-0.4-1.4v-6.1c0-0.7,0.1-1.1,0.4-1.4
			s0.8-0.4,1.4-0.4h14.1c0.5,0,0.8-0.1,1-0.4c0.2-0.3,0.3-0.7,0.3-1.1c0-0.6-0.1-1-0.3-1.3c-0.2-0.3-0.6-0.4-1-0.5l-7.9-1.1
			c-2.4-0.3-4.4-1.2-5.9-2.4c-1.5-1.3-2.2-3.4-2.2-6.3v-5.5c0-3,1-5.3,2.9-6.8c1.9-1.6,4.6-2.4,8-2.4h14.7c0.7,0,1.1,0.1,1.4,0.4
			c0.3,0.3,0.4,0.8,0.4,1.4v6.2c0,0.7-0.1,1.1-0.4,1.4c-0.3,0.3-0.8,0.4-1.4,0.4h-12.2c-0.5,0-0.8,0.1-1,0.4
			c-0.2,0.3-0.4,0.7-0.4,1.1c0,0.5,0.1,0.8,0.4,1.2c0.2,0.3,0.6,0.5,1,0.5l7.8,1c2.4,0.3,4.4,1.2,5.9,2.4c1.5,1.3,2.3,3.4,2.3,6.3
			v5.5c0,3-1,5.2-2.9,6.8C375.4,112.1,372.7,112.9,369.4,112.9z"/>
	</g>
	<g id="XMLID_215_">
		<path id="XMLID_235_" class="st1" d="M21.2,60.3H8.5c-1,0-1.8-0.2-2.2-0.7c-0.5-0.5-0.7-1.2-0.7-2.2v-53c0-1,0.2-1.8,0.7-2.2
			c0.5-0.5,1.2-0.7,2.2-0.7h12.7c1,0,1.8,0.2,2.2,0.7c0.5,0.5,0.7,1.2,0.7,2.2v17.7h13.7V4.4c0-1,0.2-1.8,0.7-2.2
			c0.5-0.5,1.2-0.7,2.2-0.7h12.7c1,0,1.8,0.2,2.2,0.7c0.5,0.5,0.7,1.2,0.7,2.2v53c0,1-0.2,1.8-0.7,2.2c-0.5,0.5-1.2,0.7-2.2,0.7
			H40.7c-1,0-1.8-0.2-2.2-0.7c-0.5-0.5-0.7-1.2-0.7-2.2V39.2H24.1v18.2c0,1-0.2,1.8-0.7,2.2C23,60.1,22.2,60.3,21.2,60.3z"/>
		<path id="XMLID_232_" class="st1" d="M117.5,44.9c0,2.5-0.4,4.8-1.1,6.8c-0.7,2-2,3.8-3.9,5.2c-1.9,1.4-4.5,2.6-7.8,3.4
			c-3.3,0.8-7.5,1.2-12.5,1.2c-5.1,0-9.3-0.4-12.6-1.2c-3.3-0.8-5.9-1.9-7.8-3.4c-1.9-1.4-3.2-3.2-3.9-5.2c-0.7-2-1.1-4.3-1.1-6.8
			V17c0-2.5,0.4-4.8,1.1-6.8c0.7-2,2-3.8,3.9-5.3c1.9-1.5,4.5-2.6,7.8-3.4c3.3-0.8,7.5-1.2,12.6-1.2c5.1,0,9.2,0.4,12.5,1.2
			c3.3,0.8,5.9,2,7.8,3.4c1.9,1.5,3.2,3.2,3.9,5.3c0.7,2,1.1,4.3,1.1,6.8V44.9z M85.3,41.9c0,1.1,0.4,2,1.2,2.7
			c0.8,0.7,2.7,1.1,5.6,1.1c2.9,0,4.8-0.4,5.6-1.1C98.6,44,99,43,99,41.9V20c0-1-0.4-1.9-1.2-2.7c-0.8-0.7-2.7-1.1-5.6-1.1
			c-2.9,0-4.8,0.4-5.6,1.1c-0.8,0.7-1.2,1.6-1.2,2.7V41.9z"/>
		<path id="XMLID_229_" class="st1" d="M143.4,60.3h-12.6c-1,0-1.8-0.2-2.2-0.7c-0.5-0.5-0.7-1.2-0.7-2.2v-53c0-1,0.2-1.8,0.7-2.2
			c0.5-0.5,1.2-0.7,2.2-0.7h27.2c6.1,0,10.3,1.3,12.6,3.8c2.3,2.5,3.5,5.8,3.5,9.9v3.8c0,2.3-0.3,4.2-1,5.8
			c-0.7,1.6-1.9,2.8-3.6,3.5c2.9,0.3,5.3,1.5,7.2,3.6c1.8,2.1,2.7,4.8,2.7,8.3v17.3c0,1-0.2,1.8-0.7,2.2c-0.5,0.5-1.2,0.7-2.2,0.7
			h-12.7c-1,0-1.8-0.2-2.2-0.7c-0.5-0.5-0.7-1.2-0.7-2.2V44.9c0-1.2-0.2-2.1-0.7-2.7c-0.5-0.6-1.3-0.9-2.4-0.9h-11.4v16
			c0,1-0.2,1.8-0.7,2.2C145.2,60.1,144.5,60.3,143.4,60.3z M146.4,16.2v10.5h6.1c1.4,0,2.4-0.4,2.9-1.1c0.5-0.7,0.7-1.6,0.7-2.7V20
			c0-1.1-0.2-2-0.7-2.7c-0.5-0.7-1.4-1.1-2.9-1.1H146.4z"/>
		<path id="XMLID_226_" class="st1" d="M204.2,60.3h-12.6c-1,0-1.8-0.2-2.2-0.7c-0.5-0.5-0.7-1.2-0.7-2.2v-53c0-1,0.2-1.8,0.7-2.2
			c0.5-0.5,1.2-0.7,2.2-0.7h27.2c6.1,0,10.3,1.3,12.6,3.8s3.5,5.8,3.5,9.9v3.8c0,2.3-0.3,4.2-1,5.8c-0.7,1.6-1.9,2.8-3.6,3.5
			c2.9,0.3,5.3,1.5,7.2,3.6c1.8,2.1,2.7,4.8,2.7,8.3v17.3c0,1-0.2,1.8-0.7,2.2c-0.5,0.5-1.2,0.7-2.2,0.7h-12.7c-1,0-1.8-0.2-2.2-0.7
			c-0.5-0.5-0.7-1.2-0.7-2.2V44.9c0-1.2-0.2-2.1-0.7-2.7c-0.5-0.6-1.3-0.9-2.4-0.9h-11.4v16c0,1-0.2,1.8-0.7,2.2
			C206,60.1,205.2,60.3,204.2,60.3z M207.1,16.2v10.5h6.1c1.4,0,2.4-0.4,2.9-1.1c0.5-0.7,0.7-1.6,0.7-2.7V20c0-1.1-0.2-2-0.7-2.7
			c-0.5-0.7-1.4-1.1-2.9-1.1H207.1z"/>
		<path id="XMLID_224_" class="st1" d="M251,60.3c-1,0-1.8-0.2-2.2-0.7c-0.5-0.5-0.7-1.2-0.7-2.2v-9.7c0-1,0.2-1.8,0.7-2.2
			c0.5-0.5,1.2-0.7,2.2-0.7h8.1V17.3H251c-1,0-1.8-0.2-2.2-0.7c-0.5-0.5-0.7-1.2-0.7-2.2V4.4c0-1,0.2-1.8,0.7-2.2
			c0.5-0.5,1.2-0.7,2.2-0.7h34.8c1,0,1.8,0.2,2.2,0.7c0.5,0.5,0.7,1.2,0.7,2.2v9.9c0,1-0.2,1.8-0.7,2.2c-0.5,0.5-1.2,0.7-2.2,0.7
			h-7.9v27.5h7.9c1,0,1.8,0.2,2.2,0.7c0.5,0.5,0.7,1.2,0.7,2.2v9.7c0,1-0.2,1.8-0.7,2.2c-0.5,0.5-1.2,0.7-2.2,0.7H251z"/>
		<path id="XMLID_220_" class="st1" d="M333.2,60.3h-31.4c-1,0-1.8-0.2-2.2-0.7c-0.5-0.5-0.7-1.2-0.7-2.2v-53c0-1,0.2-1.8,0.7-2.2
			c0.5-0.5,1.2-0.7,2.2-0.7h26.1c5.3,0,9.3,1,11.9,3.1c2.6,2,3.8,5.2,3.8,9.4v3.9c0,2.3-0.4,4.2-1.2,5.6c-0.8,1.4-2,2.5-3.6,3.2
			c3.5,0.3,6.1,1.5,7.8,3.6c1.7,2.1,2.5,5.1,2.5,9.1v7.5c0,4.6-1.3,8-3.9,10.1C342.6,59.3,338.6,60.3,333.2,60.3z M317.2,15.4v8.8
			h6.9c1,0,1.8-0.3,2.3-0.8c0.5-0.5,0.8-1.4,0.8-2.5v-2.3c0-1.1-0.3-1.9-0.8-2.5c-0.5-0.5-1.3-0.8-2.3-0.8H317.2z M317.2,36.8v9.6
			h10.6c1,0,1.8-0.3,2.3-0.8c0.5-0.5,0.8-1.4,0.8-2.5V40c0-1.1-0.3-1.9-0.8-2.4c-0.5-0.5-1.3-0.8-2.3-0.8H317.2z"/>
		<path id="XMLID_218_" class="st1" d="M402.7,60.3h-41.6c-1,0-1.8-0.2-2.2-0.7c-0.5-0.5-0.7-1.2-0.7-2.2v-53c0-1,0.2-1.8,0.7-2.2
			c0.5-0.5,1.2-0.7,2.2-0.7h12.7c1,0,1.8,0.2,2.2,0.7c0.5,0.5,0.7,1.2,0.7,2.2v40.5h11.2V31.6c0-1,0.2-1.8,0.7-2.2s1.2-0.7,2.2-0.7
			h11.9c1,0,1.8,0.2,2.2,0.7c0.5,0.5,0.7,1.2,0.7,2.2v25.8c0,1-0.2,1.8-0.7,2.2C404.5,60.1,403.7,60.3,402.7,60.3z"/>
		<path id="XMLID_216_" class="st1" d="M455.8,60.3h-37.9c-1,0-1.8-0.2-2.2-0.7c-0.5-0.5-0.7-1.2-0.7-2.2v-53c0-1,0.2-1.8,0.7-2.2
			c0.5-0.5,1.2-0.7,2.2-0.7h37.9c1,0,1.8,0.2,2.2,0.7c0.5,0.5,0.7,1.2,0.7,2.2V14c0,1-0.2,1.8-0.7,2.2c-0.5,0.5-1.2,0.7-2.2,0.7
			h-22.6v6.3h15.9c1,0,1.8,0.2,2.2,0.7c0.5,0.5,0.7,1.2,0.7,2.2v8.7c0,1-0.2,1.8-0.7,2.2c-0.5,0.5-1.2,0.7-2.2,0.7h-15.9v7h22.6
			c1,0,1.8,0.2,2.2,0.7c0.5,0.5,0.7,1.2,0.7,2.2v9.6c0,1-0.2,1.8-0.7,2.2C457.6,60.1,456.9,60.3,455.8,60.3z"/>
	</g>
	<g id="XMLID_194_">
		<path id="XMLID_213_" class="st1" d="M118.8,112.9H106c-4.4,0-7.6-0.9-9.7-2.6c-2.1-1.7-3.2-4.4-3.2-8.1V85.9
			c0-3.6,1.1-6.3,3.2-8.1c2.1-1.8,5.4-2.6,9.7-2.6h12.8c0.7,0,1.1,0.1,1.4,0.4c0.3,0.3,0.4,0.8,0.4,1.4v6.3c0,0.7-0.1,1.1-0.4,1.4
			s-0.8,0.4-1.4,0.4h-10.5c-1.1,0-1.9,0.2-2.4,0.7c-0.5,0.4-0.8,1.1-0.8,2v12.5c0,0.9,0.3,1.5,0.8,1.9c0.5,0.4,1.3,0.6,2.4,0.6h10.5
			c0.7,0,1.1,0.1,1.4,0.4c0.3,0.3,0.4,0.8,0.4,1.4v6.2c0,0.7-0.1,1.1-0.4,1.4S119.5,112.9,118.8,112.9z"/>
		<path id="XMLID_211_" class="st1" d="M136.6,112.9h-8.1c-0.7,0-1.1-0.1-1.4-0.4c-0.3-0.3-0.4-0.8-0.4-1.4V77
			c0-0.7,0.1-1.1,0.4-1.4c0.3-0.3,0.8-0.4,1.4-0.4h8.1c0.7,0,1.1,0.1,1.4,0.4c0.3,0.3,0.4,0.8,0.4,1.4v11.4h8.8V77
			c0-0.7,0.1-1.1,0.4-1.4c0.3-0.3,0.8-0.4,1.4-0.4h8.1c0.7,0,1.1,0.1,1.4,0.4c0.3,0.3,0.4,0.8,0.4,1.4v34c0,0.7-0.1,1.1-0.4,1.4
			c-0.3,0.3-0.8,0.4-1.4,0.4h-8.1c-0.7,0-1.1-0.1-1.4-0.4c-0.3-0.3-0.4-0.8-0.4-1.4V99.4h-8.8V111c0,0.7-0.1,1.1-0.4,1.4
			C137.8,112.7,137.3,112.9,136.6,112.9z"/>
		<path id="XMLID_208_" class="st1" d="M177.1,111c0,0.7-0.1,1.1-0.4,1.4s-0.8,0.4-1.4,0.4h-7.7c-0.7,0-1.1-0.1-1.4-0.4
			s-0.4-0.8-0.4-1.4V97.2c0-1,0.2-2.3,0.5-3.6c0.3-1.4,0.8-3,1.5-4.8l4.6-11.9c0.2-0.6,0.5-1,1-1.3c0.4-0.3,1-0.4,1.7-0.4H189
			c0.7,0,1.2,0.1,1.7,0.4c0.4,0.3,0.8,0.7,1,1.3l4.6,11.9c0.7,1.8,1.2,3.4,1.5,4.8c0.3,1.4,0.5,2.6,0.5,3.6V111
			c0,0.7-0.1,1.1-0.4,1.4s-0.8,0.4-1.4,0.4h-7.9c-0.7,0-1.2-0.1-1.5-0.4c-0.3-0.3-0.5-0.8-0.5-1.4v-7.3h-9.3V111z M180.1,86.1
			l-2.5,8h8.2l-2.5-8c-0.1-0.3-0.3-0.5-0.4-0.7c-0.2-0.1-0.3-0.2-0.6-0.2h-1.3c-0.2,0-0.4,0.1-0.6,0.2
			C180.4,85.6,180.2,85.8,180.1,86.1z"/>
		<path id="XMLID_205_" class="st1" d="M214.6,112.9h-8.1c-0.7,0-1.1-0.1-1.4-0.4c-0.3-0.3-0.4-0.8-0.4-1.4V77
			c0-0.7,0.1-1.1,0.4-1.4c0.3-0.3,0.8-0.4,1.4-0.4H224c3.9,0,6.6,0.8,8.1,2.4s2.2,3.7,2.2,6.3v2.4c0,1.5-0.2,2.7-0.7,3.7
			c-0.4,1-1.2,1.8-2.3,2.2c1.9,0.2,3.4,1,4.6,2.3c1.2,1.3,1.8,3.1,1.8,5.3V111c0,0.7-0.1,1.1-0.4,1.4s-0.8,0.4-1.4,0.4h-8.1
			c-0.7,0-1.1-0.1-1.4-0.4c-0.3-0.3-0.4-0.8-0.4-1.4v-8c0-0.8-0.1-1.3-0.4-1.7c-0.3-0.4-0.8-0.6-1.5-0.6h-7.3V111
			c0,0.7-0.1,1.1-0.4,1.4S215.3,112.9,214.6,112.9z M216.5,84.6v6.7h3.9c0.9,0,1.5-0.2,1.8-0.7c0.3-0.5,0.5-1.1,0.5-1.8V87
			c0-0.7-0.2-1.3-0.5-1.8c-0.3-0.5-0.9-0.7-1.8-0.7H216.5z"/>
		<path id="XMLID_202_" class="st1" d="M254.3,111c0,0.7-0.1,1.1-0.4,1.4s-0.8,0.4-1.4,0.4h-7.7c-0.7,0-1.1-0.1-1.4-0.4
			s-0.4-0.8-0.4-1.4V97.2c0-1,0.2-2.3,0.5-3.6c0.3-1.4,0.8-3,1.5-4.8l4.6-11.9c0.2-0.6,0.5-1,1-1.3c0.4-0.3,1-0.4,1.7-0.4h14.1
			c0.7,0,1.2,0.1,1.7,0.4c0.4,0.3,0.8,0.7,1,1.3l4.6,11.9c0.7,1.8,1.2,3.4,1.5,4.8c0.3,1.4,0.5,2.6,0.5,3.6V111
			c0,0.7-0.1,1.1-0.4,1.4s-0.8,0.4-1.4,0.4h-7.9c-0.7,0-1.2-0.1-1.5-0.4c-0.3-0.3-0.5-0.8-0.5-1.4v-7.3h-9.3V111z M257.3,86.1
			l-2.5,8h8.2l-2.5-8c-0.1-0.3-0.3-0.5-0.4-0.7c-0.2-0.1-0.3-0.2-0.6-0.2h-1.3c-0.2,0-0.4,0.1-0.6,0.2
			C257.6,85.6,257.4,85.8,257.3,86.1z"/>
		<path id="XMLID_199_" class="st1" d="M301.4,112.9h-17.7c-0.7,0-1.1-0.1-1.4-0.4c-0.3-0.3-0.4-0.8-0.4-1.4V77
			c0-0.7,0.1-1.1,0.4-1.4c0.3-0.3,0.8-0.4,1.4-0.4h17.7c4.4,0,7.6,0.9,9.7,2.6c2.1,1.7,3.2,4.4,3.2,8.1v16.4c0,3.6-1.1,6.3-3.2,8.1
			C309,112,305.8,112.9,301.4,112.9z M293.8,85.1V103h6.2c0.8,0,1.5-0.2,1.9-0.6c0.4-0.4,0.6-1.1,0.6-1.9V87.7
			c0-0.9-0.2-1.5-0.6-1.9c-0.4-0.4-1-0.6-1.9-0.6H293.8z"/>
		<path id="XMLID_197_" class="st1" d="M347.2,112.9h-24.3c-0.7,0-1.1-0.1-1.4-0.4c-0.3-0.3-0.4-0.8-0.4-1.4V77
			c0-0.7,0.1-1.1,0.4-1.4c0.3-0.3,0.8-0.4,1.4-0.4h24.3c0.7,0,1.1,0.1,1.4,0.4c0.3,0.3,0.4,0.8,0.4,1.4v6.1c0,0.7-0.1,1.1-0.4,1.4
			c-0.3,0.3-0.8,0.4-1.4,0.4h-14.5v4h10.2c0.7,0,1.1,0.1,1.4,0.4c0.3,0.3,0.4,0.8,0.4,1.4v5.6c0,0.7-0.1,1.1-0.4,1.4
			s-0.8,0.4-1.4,0.4h-10.2v4.5h14.5c0.7,0,1.1,0.1,1.4,0.4c0.3,0.3,0.4,0.8,0.4,1.4v6.1c0,0.7-0.1,1.1-0.4,1.4
			C348.3,112.7,347.8,112.9,347.2,112.9z"/>
		<path id="XMLID_195_" class="st1" d="M372.8,112.9h-16.6c-0.7,0-1.1-0.1-1.4-0.4s-0.4-0.8-0.4-1.4v-6.1c0-0.7,0.1-1.1,0.4-1.4
			s0.8-0.4,1.4-0.4h14.1c0.5,0,0.8-0.1,1-0.4c0.2-0.3,0.3-0.7,0.3-1.1c0-0.6-0.1-1-0.3-1.3c-0.2-0.3-0.6-0.4-1-0.5l-7.9-1.1
			c-2.4-0.3-4.4-1.2-5.9-2.4c-1.5-1.3-2.2-3.4-2.2-6.3v-5.5c0-3,1-5.3,2.9-6.8c1.9-1.6,4.6-2.4,8-2.4h14.7c0.7,0,1.1,0.1,1.4,0.4
			c0.3,0.3,0.4,0.8,0.4,1.4v6.2c0,0.7-0.1,1.1-0.4,1.4c-0.3,0.3-0.8,0.4-1.4,0.4h-12.2c-0.5,0-0.8,0.1-1,0.4
			c-0.2,0.3-0.4,0.7-0.4,1.1c0,0.5,0.1,0.8,0.4,1.2c0.2,0.3,0.6,0.5,1,0.5l7.8,1c2.4,0.3,4.4,1.2,5.9,2.4c1.5,1.3,2.3,3.4,2.3,6.3
			v5.5c0,3-1,5.2-2.9,6.8C378.8,112.1,376.1,112.9,372.8,112.9z"/>
	</g>
</g>
</svg>
